<svg width="300" height="300" viewBox="0 0 39.687514 39.687498" xmlns="http://www.w3.org/2000/svg">
	<g style="fill:none;stroke:currentColor" transform="matrix(0.23818728,0,0,0.23809997,9.6406731,9.64285)">
		<path
			d="M 12.409,13.017 A 5,5 0 0 1 22,15 c 0,3.866 -4,7 -9,7 C 8.923,22 4.847,21.18 2.629,19.538 2.203,19.222 1.998,18.706 2.009,18.176 2.118,12.723 2.627,2 10,2 a 3,3 0 0 1 3,3 2,2 0 0 1 -2,2 C 9.895,7 9.36,6.556 9,6" />
		<path d="M 15,14 A 5,5 0 0 0 7.416,16" />
		<path d="M 9.964,6.825 C 8.019,7.977 9.5,13 8,15" />
	</g>
	<g transform="translate(20,20)">
		<g style="fill:none;stroke:currentColor" transform="matrix(0.23818728,0,0,0.23809997,9.6406731,9.64285)">
			<path
				d="M 12.409,13.017 A 5,5 0 0 1 22,15 c 0,3.866 -4,7 -9,7 C 8.923,22 4.847,21.18 2.629,19.538 2.203,19.222 1.998,18.706 2.009,18.176 2.118,12.723 2.627,2 10,2 a 3,3 0 0 1 3,3 2,2 0 0 1 -2,2 C 9.895,7 9.36,6.556 9,6" />
			<path d="M 15,14 A 5,5 0 0 0 7.416,16" />
			<path d="M 9.964,6.825 C 8.019,7.977 9.5,13 8,15" />
		</g>
	</g>
</svg>