<svg width="300" height="300" viewBox="0 0 39.687514 39.687498" xmlns="http://www.w3.org/2000/svg">
	<g style="fill:none;stroke:#d4d4d4" transform="matrix(0.23567603,0,0,0.23570741,-0.32832209,-0.32827258)">
		<path d="M 14.4,14.4 9.6,9.6" />
		<path
			d="m 18.657,21.485 a 2.0000516,2.0000516 0 1 1 -2.829,-2.828 l -1.767,1.768 a 2.0004051,2.0004051 0 1 1 -2.829,-2.829 l 6.364,-6.364 a 2.0004051,2.0004051 0 1 1 2.829,2.829 l -1.768,1.767 a 2.0000516,2.0000516 0 1 1 2.828,2.829 z" />
		<path d="M 21.5,21.5 20.1,20.1" />
		<path d="M 3.9,3.9 2.5,2.5" />
		<path
			d="M 6.404,12.768 A 2.0004051,2.0004051 0 1 1 3.575,9.939 L 5.343,8.172 A 2.0000516,2.0000516 0 1 1 2.515,5.343 L 5.343,2.515 A 2.0000516,2.0000516 0 1 1 8.172,5.343 L 9.939,3.575 a 2.0004051,2.0004051 0 1 1 2.829,2.829 z" />
	</g>
	<g transform="translate(20,20)">
		<g style="fill:none;stroke:#d4d4d4" transform="matrix(0.23567603,0,0,0.23570741,-0.32832209,-0.32827258)">
			<path d="M 14.4,14.4 9.6,9.6" />
			<path
				d="m 18.657,21.485 a 2.0000516,2.0000516 0 1 1 -2.829,-2.828 l -1.767,1.768 a 2.0004051,2.0004051 0 1 1 -2.829,-2.829 l 6.364,-6.364 a 2.0004051,2.0004051 0 1 1 2.829,2.829 l -1.768,1.767 a 2.0000516,2.0000516 0 1 1 2.828,2.829 z" />
			<path d="M 21.5,21.5 20.1,20.1" />
			<path d="M 3.9,3.9 2.5,2.5" />
			<path
				d="M 6.404,12.768 A 2.0004051,2.0004051 0 1 1 3.575,9.939 L 5.343,8.172 A 2.0000516,2.0000516 0 1 1 2.515,5.343 L 5.343,2.515 A 2.0000516,2.0000516 0 1 1 8.172,5.343 L 9.939,3.575 a 2.0004051,2.0004051 0 1 1 2.829,2.829 z" />
		</g>
	</g>
</svg>